<svg width="144" height="300" viewBox="0 0 144 300" fill="none" xmlns="http://www.w3.org/2000/svg">
<path fill-rule="evenodd" clip-rule="evenodd" d="M76.1662 0H103.863V1.92308C103.863 3.76923 104.017 3.84615 109.633 3.84615C114.865 3.84615 115.403 4 115.403 5.38462C115.403 6.69231 115.942 6.92308 121.558 6.92308V10C121.558 12.2308 121.866 13.0769 122.712 13.0769C123.635 13.0769 123.866 14.1538 123.866 18.4615C123.866 23.6923 123.943 23.8462 125.79 23.8462C127.636 23.8462 127.713 24 127.713 28.8462C127.713 33.3077 127.867 33.8462 129.252 33.8462C130.56 33.8462 130.79 34.3846 130.79 36.9231C130.79 39.4615 130.56 40 129.252 40C128.021 40 127.713 40.5385 127.713 42.6923C127.713 45.0769 127.944 45.3846 131.56 45.3846V67.6923H128.482C125.482 67.6923 125.405 67.7692 125.405 70.3846C125.405 73 125.328 73.0769 122.328 73.0769C119.558 73.0769 119.25 73.3077 119.25 75C119.25 76.8462 119.019 76.9231 115.019 76.9231C111.326 76.9231 110.787 77.0769 110.787 78.4615C110.787 79.9231 111.326 80 131.56 80V86.5385C131.56 92.5385 131.714 93.0769 133.099 93.0769C134.406 93.0769 134.637 93.6154 134.637 96.1538C134.637 98.9231 134.406 99.2308 132.714 99.2308C130.867 99.2308 130.79 99.4615 130.79 107.692H137.715V128.462H143.1V168.462H137.715V183.077H130.79V186.154C130.79 189.154 130.714 189.231 125.405 189.231V233.077H131.56V280.769H136.945V300H46.9307V297.308C46.9307 295.154 46.623 294.615 45.392 294.615C44.0072 294.615 43.8533 294.077 43.8533 281.538H46.546C49.0849 281.538 49.2388 281.385 49.2388 276.154H63.8565V256.923H61.9331C60.1636 256.923 60.0098 256.615 60.0098 253.846C60.0098 251.077 60.2406 250.769 61.9331 250.769C63.8565 250.769 63.8565 250.769 63.8565 236.154L58.0864 235.769L57.8556 209C57.7017 182.769 57.7017 182.308 59.2404 182.308C60.5483 182.308 60.7791 181.769 60.7791 179.231C60.7791 176.462 60.933 176.154 62.7025 176.154C64.472 176.154 64.6259 175.923 64.6259 168.462H40.0065V165.385C40.0065 162.385 39.9296 162.308 37.3138 162.308C34.6979 162.308 34.621 162.231 34.621 156.154H28.4662V152.692C28.4662 149.385 28.3892 149.231 26.1581 149.231C23.927 149.231 23.85 149.077 23.85 145.769C23.85 142.846 23.6192 142.308 22.3113 142.308C21.0034 142.308 20.7726 141.769 20.7726 138.846C20.7726 135.385 20.7726 135.385 15.3871 135.385V127.692H3.84678V125.385C3.84678 123.462 3.53904 123.077 0 123.077V86.9231H6.9242V80H39.2371V83.0769C39.2371 86.0769 39.3141 86.1538 44.6226 86.1538V100.769H51.5468V135.385H57.7017V121.538H60.7791C63.7796 121.538 63.8565 121.462 63.8565 118.846C63.8565 116.385 63.7027 116.154 59.2404 116.154V106.154H61.5485C63.7027 106.154 63.8565 106 63.8565 100H70.0114V93.8462H77.7049V86.1538L86.7833 85.9231C92.2458 85.7692 89.7069 85.6154 64.6259 85.3846V83.0769C64.6259 80.8462 64.472 80.7692 57.7017 80.7692V70H51.5468V46.9231H44.6226V39.2308H39.2371V18.4615H45.392V12.3077H54.6243V3.07692H62.3178C69.4728 3.07692 70.0114 3.15385 70.0114 4.61538C70.0114 5.92308 70.5499 6.15385 76.1662 6.15385V0ZM86.1679 237.692H90.784V276.154H103.863V258.462H97.7082V223.846H92.3227V207.692H86.1679V237.692ZM0 53.0769H6.15485V59.2308H0V53.0769Z" fill="#0C1524" fill-opacity="0.9"/>
<path d="M63.0875 48.4617C64.1133 48.4617 64.6262 47.9488 64.6262 46.9232C64.6262 45.5386 65.1647 45.3847 69.627 45.3847C74.0893 45.3847 74.6278 45.5386 74.6278 46.9232C74.6278 48.3078 74.0893 48.4617 64.6262 48.4617V51.9232C64.6262 54.8463 64.3954 55.3847 63.0875 55.3847C61.7796 55.3847 61.5488 54.8463 61.5488 51.9232C61.5488 49.0001 61.7796 48.4617 63.0875 48.4617Z" fill="#B4B4B4"/>
<path d="M75.7819 58.4616C76.7051 58.4616 76.9359 57.4616 76.9359 53.8463C76.9359 49.7693 77.0898 49.2309 78.4746 49.2309C79.8594 49.2309 80.0133 49.7693 80.0133 54.6155C80.0133 58.9232 79.7825 60.0001 78.8593 60.0001C78.2438 60.0001 77.7053 60.3078 77.7053 60.7693C77.7053 61.2309 77.0128 61.5385 76.1665 61.5385C75.3202 61.5385 74.6278 61.8462 74.6278 62.3078C74.6278 62.7693 74.0893 63.077 73.4738 63.077C72.8583 63.077 72.3198 63.6155 72.3198 64.2309C72.3198 64.8462 71.6273 65.3847 70.781 65.3847C69.7552 65.3847 69.2423 64.8719 69.2423 63.8462C69.2423 63.0001 69.7809 62.3078 70.3964 62.3078C71.0119 62.3078 71.5504 61.7693 71.5504 61.1539C71.5504 60.5386 72.2428 60.0001 73.0891 60.0001C73.9354 60.0001 74.6278 59.6924 74.6278 59.2309C74.6278 58.7693 75.1664 58.4616 75.7819 58.4616Z" fill="#B4B4B4"/>
<path d="M70.781 78.4616C69.5501 78.4616 69.2423 77.9231 69.2423 75.7693C69.2423 73.6154 69.5501 73.077 70.781 73.077C72.012 73.077 72.3198 73.6154 72.3198 75.7693C72.3198 77.9231 72.012 78.4616 70.781 78.4616Z" fill="#B4B4B4"/>
<path d="M6.92438 53.0769V50V46.9231H13.0792V53.0769H6.92438Z" fill="#0C1524" fill-opacity="0.9"/>
<path d="M21.5422 65.3846V58.0769V50.7692H27.697V65.3846H21.5422Z" fill="#0C1524" fill-opacity="0.9"/>
<path d="M7.69373 73.0769V70V66.9231H20.0035V73.0769H7.69373Z" fill="#0C1524" fill-opacity="0.9"/>
<path d="M26.9277 76.9231V73.8462V70.7692H33.0825V76.9231H26.9277Z" fill="#0C1524" fill-opacity="0.9"/>
</svg>
